
<svg enable-background="new 0 0 1024 1024" height="1024" image-rendering="optimizeSpeed" viewBox="0 0 1024 1024" width="1024" xmlns="http://www.w3.org/2000/svg" xmlns:xlink="http://www.w3.org/1999/xlink"><mask id="a"><path d="m969.75 392.05c-1.1-4.35-2.35-9-3.65-13.6-2.5-8.75-5.35-17.6-8.45-26.35-6.45-18.25-14.15-36.05-23.15-53.65-3.8-7.4-7.95-14.95-12.3-22.4-20.3-34.5-45.8-67.2-76.35-97.75-72.6-72.6-157.15-116.65-253.65-132.05-16.25-2.6-32.8-4.4-50.05-5.35-9.7-.55-19.85-.85-30.1-.85-9.35 0-18.6.25-27.9.75-118.35 6.1-220.3 51.95-305.85 137.5q-138.25 138.25-138.25 333.75c0 130.35 46.1 241.65 138.25 333.8 70.4 70.35 151.9 113.85 243.95 130.4 20.45 3.65 40.9 6 61.9 7.1h.4c8.5.45 16.6.7 24.5.7h3c10.3 0 20.5-.3 30.1-.8 2.5-.15 4.75-.3 6.95-.45 20.2-1.45 39.9-4.05 58.7-7.7 7.95-1.55 15.8-3.3 23.4-5.15 80.8-20.3 152.15-61.6 214.65-124.1 48.6-48.6 84.4-102.5 107.35-161.8 18.45-47.65 28.65-98.8 30.55-153.5.2-6.05.3-12.25.3-18.5 0-.65 0-1.35 0-2 0-.35 0-.65 0-1-.1-19.9-1.25-39.35-3.55-58.55-2.4-19.8-5.95-39.3-10.75-58.45z" fill="#fff" image-rendering="optimizeSpeed"/></mask><path d="m969.65 351.3q-8.6-20.85-19.4-40.85c-4.05-7.55-8.35-15.05-12.9-22.4-19.55-31.7-43.4-61.65-71.55-89.8-92.15-92.15-203.45-138.25-333.8-138.25s-241.6 46.1-333.75 138.25-138.25 203.4-138.25 333.75 46.1 241.65 138.25 333.8 203.4 138.2 333.75 138.2 241.65-46.05 333.8-138.2c50.75-50.8 87.55-107.4 110.35-169.75 18.55-50.85 27.85-105.5 27.85-164.05 0-44.9-5.45-87.55-16.4-127.95-1.25-4.55-2.55-9.1-3.9-13.6-4.1-13.3-8.8-26.35-14.05-39.15z" fill-opacity=".098039"/><path d="m966.1 378.45c-2.5-8.75-5.35-17.6-8.45-26.35-6.45-18.25-14.15-36.05-23.15-53.65-3.8-7.4-7.95-14.95-12.3-22.4-20.3-34.5-45.8-67.2-76.35-97.75-72.6-72.6-157.15-116.65-253.65-132.05-16.25-2.6-32.8-4.4-50.05-5.35-9.7-.55-19.85-.85-30.1-.85-9.35 0-18.6.25-27.9.75-118.35 6.1-220.3 51.95-305.85 137.5q-138.25 138.25-138.25 333.75c0 130.35 46.1 241.65 138.25 333.8 70.4 70.35 151.9 113.85 243.95 130.4 20.45 3.65 40.9 6 61.9 7.1h.4c8.5.45 16.6.7 24.5.7h3c10.3 0 20.5-.3 30.1-.8 2.5-.15 4.75-.3 6.95-.45 20.2-1.45 39.9-4.05 58.7-7.7 7.95-1.55 15.8-3.3 23.4-5.15 80.8-20.3 152.15-61.6 214.65-124.1 48.6-48.6 84.4-102.5 107.35-161.8 18.45-47.65 28.65-98.8 30.55-153.5.2-6.05.3-12.25.3-18.5 0-.65 0-1.35 0-2 0-.35 0-.65 0-1-.1-19.9-1.25-39.35-3.55-58.55-2.4-19.8-5.95-39.3-10.75-58.45-1.1-4.35-2.35-9-3.65-13.6z" fill="#436485"/><g mask="url(#a)"><path d="m980.7 309.45-.05-269.3-493.15-.1c15.5 65.9 51.75 124.1 108.55 174.75 78.6 70.1 173.2 105.05 284.25 105.05 35.05 0 68.45-3.45 100.4-10.4z" fill="#666"/><path d="m980.65 741.25v-247.65l.05-184.15c-31.95 6.95-65.35 10.4-100.4 10.4-111.05 0-205.65-34.95-284.25-105.05-56.8-50.65-93.05-108.85-108.55-174.75h-447.15l.1 461.6-.1 247.5c143.95-41.75 305.5-62.8 484.65-62.75 167.2 0 319.15 18.2 455.65 54.85z" fill="#223040"/><path d="m929.3 440.4c-1.9.1-3.7.7-5.15 2.15-1.35 1.45-2.15 3.1-2.15 5.15.1 1.95.7 3.65 2.1 5.05 1.5 1.35 3.25 2.15 5.1 2.05 2.15.1 3.8-.6 5.15-2.05q2.15-2.15 2.15-5.05c0-2.05-.7-3.8-2.15-5.15-1.35-1.35-3-2.15-5.05-2.15zm10.8 177.75c1.95-.1 3.5-.9 4.9-2.15 1.25-1.3 1.95-2.95 1.95-4.8.1-1.8-.6-3.55-1.95-4.8-1.4-1.4-2.95-2-4.8-2-1.9 0-3.55.6-4.9 2.05-1.3 1.3-1.95 2.95-1.95 4.8 0 1.9.6 3.45 1.95 4.8 1.35 1.4 3 2 4.8 2.1zm-23.8 53.1c-1.8-1.8-3.9-2.55-6.3-2.65-2.35 0-4.6.95-6.25 2.65-1.8 1.7-2.55 3.85-2.55 6.35-.1 2.4.75 4.45 2.55 6.25 1.75 1.65 3.8 2.5 6.25 2.5 2.35.05 4.5-.8 6.3-2.6 1.7-1.7 2.45-3.75 2.45-6.25.2-2.5-.75-4.6-2.45-6.25zm-736.25-515.15c-1.2-1.2-2.65-1.8-4.3-1.8-1.7 0-3.1.65-4.3 1.8-1.2 1.25-1.7 2.55-1.7 4.2 0 1.8.5 3.05 1.7 4.35 1.2 1.1 2.6 1.7 4.3 1.8 1.7 0 3.1-.7 4.2-1.8 1.3-1.3 1.9-2.65 1.9-4.3 0-1.8-.6-3.15-1.8-4.25zm-105.6 25.5c-1.7 0-3.05.55-4.25 1.75-1.15 1.25-1.75 2.65-1.8 4.25 0 1.75.6 3.1 1.8 4.3s2.55 1.8 4.25 1.8c1.65 0 3-.6 4.2-1.8 1.3-1.2 1.8-2.55 1.8-4.3 0-1.7-.6-3.05-1.8-4.2-1.1-1.25-2.55-1.7-4.2-1.8zm132.25 249.2c0-1.8-.6-3.35-1.9-4.6-1.3-1.2-2.75-1.8-4.65-1.8-1.7 0-3.15.65-4.45 1.8-1.25 1.25-1.85 2.9-1.95 4.6.1 1.65.75 3.2 1.95 4.4 1.2 1.35 2.75 2.05 4.55 2.05 1.7 0 3.25-.6 4.55-2.05 1.3-1.2 1.9-2.7 1.9-4.4zm-138.3 236.25c0 1.8.65 3.25 1.95 4.55s2.85 1.9 4.55 1.9c1.8.05 3.35-.6 4.55-1.8 1.2-1.4 1.8-2.85 1.8-4.65s-.6-3.25-1.9-4.55c-1.1-1.2-2.65-1.8-4.45-1.85-1.7 0-3.35.6-4.65 1.85-1.25 1.3-1.85 2.85-1.85 4.55z" fill="#fff"/><path d="m833.7 570.65c0-1.7-.6-3.35-2-4.6-1.3-1.2-2.75-1.8-4.55-1.8-1.7 0-3.25.6-4.55 1.8-1.2 1.25-1.8 2.7-1.8 4.5s.6 3.35 1.8 4.55c1.3 1.4 2.85 2 4.65 2 1.65 0 3.15-.6 4.35-2 1.3-1.2 2-2.75 2.1-4.45zm25.6 47.5c.1-3.9-1.2-7.05-3.95-9.7s-5.9-4.05-9.6-4.05c-3.85-.05-7 1.3-9.75 3.95-2.6 2.75-3.95 5.85-3.95 9.7-.1 3.65 1.35 6.95 3.95 9.5 2.65 2.85 5.9 4.1 9.65 4.2 3.8 0 6.95-1.35 9.7-4.1 2.65-2.6 3.95-5.85 3.95-9.5zm-721.7-508.95c1.15 1.05 2.5 1.65 3.95 1.65 1.55 0 2.85-.6 3.95-1.65 1.1-1.1 1.7-2.4 1.7-4-.05-1.45-.6-2.85-1.7-3.95-1.1-1.05-2.4-1.65-3.95-1.55-1.55 0-2.9.5-3.95 1.55-1.1 1.1-1.8 2.5-1.7 4s.5 2.75 1.7 3.95zm-37 31.45c0 2.4.85 4.45 2.55 6.25 1.75 1.65 3.95 2.5 6.3 2.5 2.45.1 4.5-.75 6.25-2.55 1.7-1.75 2.55-3.8 2.55-6.2 0-2.45-.75-4.6-2.55-6.35-1.75-1.7-3.8-2.55-6.35-2.55-2.4 0-4.45.75-6.2 2.55-1.7 1.8-2.55 3.9-2.55 6.35z" fill="#6cf"/><path d="m941.4 531c-2.5-2.5-5.65-3.8-9.25-3.8-3.7.1-6.85 1.3-9.45 3.85-2.55 2.6-3.85 5.75-3.95 9.35.1 3.7 1.3 6.85 3.95 9.35 2.6 2.75 5.75 3.95 9.45 4 3.65 0 6.75-1.25 9.3-4 2.5-2.6 3.9-5.65 3.9-9.35.05-3.6-1.3-6.7-3.95-9.4zm-837.1-447.25c-3.35-3.35-7.4-5.05-12.1-5.05-4.9 0-8.9 1.7-12.25 5.05s-5.05 7.45-5.15 12.2c.2 4.8 1.8 8.8 5.05 12.3 3.55 3.35 7.55 5.1 12.35 5 4.7.1 8.85-1.55 12.15-5 3.35-3.5 5.1-7.5 5-12.25.1-4.8-1.55-8.9-5.05-12.25zm-1.65 476.1c-7.9 7.9-11.65 17.3-11.65 28.45-.1 11.15 3.95 20.55 11.65 28.3 7.9 7.95 17.4 11.8 28.55 11.9 11.05 0 20.45-3.95 28.25-11.85 7.9-7.8 11.95-17.3 11.85-28.45.1-11.05-3.95-20.35-11.85-28.25-7.7-7.9-17.2-11.85-28.35-11.9-10.95.05-20.45 4-28.45 11.8z" fill="#666"/><path d="m713.1 336.55-.1-16.7c.1-44.5-15.55-82.35-47-113.7-31.4-31.3-69.25-47.05-113.65-47.05h-102.9c-44.5 0-82.35 15.65-113.7 47.05q-5.4 5.3-9.95 10.85l229.75 154.35-25.55-99.6 131.7 89.9-3.25-67.5z" fill="#c04c00"/><path d="m713.1 336.55-54.65-42.4 3.25 67.5-131.7-89.9 25.55 99.6-229.75-154.35c-24.7 29.15-37.2 63.35-37.2 102.85l.2 376.15c-.1 3.45 0 6.55.15 9.95l423.9-.1c.1-3.25.25-6.5.25-9.85z" fill="#e6b6aa"/><path d="m664.85 438.7c0-3.1-.25-6.25-.6-9.35h-133.85c-.4 3.1-.6 6.25-.6 9.45-.05 18.55 6.55 34.6 19.8 47.8 13.2 13.1 29.15 19.8 47.75 19.6 18.65.1 34.6-6.4 47.7-19.7 13.2-13.3 19.8-29.15 19.8-47.8zm-176.85.15c0-3.25-.25-6.35-.5-9.4l-133.85-.1c-.45 3.1-.6 6.25-.6 9.45q-.1 27.9 19.8 47.8c13.1 13.2 29.1 19.7 47.65 19.7 18.65 0 34.6-6.6 47.7-19.8 13.2-13.2 19.9-29.05 19.8-47.65z" fill="#fff"/><path d="m512.15 634.9c44.85 0 83.05-6.4 114.85-19.25 30.5-12.5 46.45-27.45 47.55-44.75h-324.7c1.05 17.4 16.8 32.3 47.4 44.75 31.8 12.85 70 19.25 114.9 19.25z" fill="#aa8d83"/><path d="m785.85 736.65c76-75.95 114.05-167.6 114.05-275.1q-.05-161.25-113.95-275.3c-76-76-167.8-113.95-275.3-113.95-107.4.05-199.25 38.05-275.15 113.85-76.05 76.1-114.1 167.9-114.1 275.4.1 107.4 38.05 199.1 114.1 275.15 76 75.95 167.75 114 275.15 114 107.5-.1 199.3-38.05 275.2-114.05z" fill="#fff" fill-opacity=".2"/><path d="m513.95 1133.2h.65.2 1.6v-.025h-3.275l.025.025h.6zm-2.55-376.15c-3.15.05-6.3.15-9.35.3-46.45 2.85-86.55 21.15-120.3 54.85-36.7 36.65-55 80.95-55.1 132.95 0 51.95 18.4 96.2 55.1 132.85.45.55.85.95 1.3 1.4 32.95 32.45 72.15 50.25 116.7 53.3 9.05 0 18.6.05 28.55.1 45.75-3.05 84.85-20.75 118-53.4.5-.35.9-.85 1.3-1.35 36.8-36.75 55.15-81.05 55.15-132.9 0-52-18.4-96.3-55.05-132.95-23.45-23.45-49.95-39.5-79.55-48.05-4.25-1.15-8.6-2.2-12.95-3.05-12.6-2.65-26.2-4.05-40.4-4.05-.55 0-1.1 0-1.65 0s-1.15 0-1.75 0z" fill="#773e21"/><path d="m502.05 757.35c3.05-.15 6.2-.25 9.35-.3h1.75 1.65c14.2 0 27.8 1.4 40.4 4.05 4.35.85 8.7 1.9 12.95 3.05 29.6 8.55 56.1 24.6 79.55 48.05 36.65 36.65 55.05 80.95 55.05 132.95 0 51.85-18.35 96.15-55.15 132.9-.4.5-.8 1-1.3 1.35-33.15 32.65-72.25 50.35-118 53.4-2.35.15-4.7.25-7.05.35 12.35-.15 18.65-.25 19-.3 3.5.05 7.05.1 10.65.15h-.025l-1.45.025 431.225.275v-392.05c-136.5-36.65-288.45-54.85-455.65-54.85-179.15-.05-340.7 21-484.65 62.75v383.95l469.625.05h.025c-3.45-.05-6.9-.2-10.25-.45-44.55-3.05-83.75-20.85-116.7-53.3-.45-.45-.85-.85-1.3-1.4-36.7-36.65-55.1-80.9-55.1-132.85.1-52 18.4-96.3 55.1-132.95 33.75-33.7 73.85-52 120.3-54.85z" fill="#b55523"/><path d="m527.05 790.8h-.1c-3.1-1.75-6.65-2.15-10.25-1.25-3.55.9-6.3 2.7-8.3 5.5-.1.1-.1.2-.15.2l-102.5 144.1c-2.35 3.1-3.2 6.5-2.8 10.3.45 3.8 2 7 4.95 9.45 2.8 2.4 6 3.7 9.75 3.6l85.2.1-56.25 99.85c-.1.15-.25.3-.3.35-1.85 3.25-2.4 6.8-1.65 10.4.8 3.5 2.55 6.35 5.35 8.45.1.2.2.3.4.4 2.85 2.2 6.1 3.2 9.75 2.9h.55c3.4-.4 6.45-1.85 8.95-4.3.1-.15.35-.35.5-.55l163.15-163.25c2.9-2.95 4.35-6.4 4.4-10.5-.05-4.05-1.5-7.6-4.3-10.45-.2-.15-.4-.25-.5-.35-2.75-2.7-6.05-4.05-9.95-4l-117.35-.05 28.45-82.35q.05-.25.2-.55c1.25-3.45 1.2-6.85-.2-10.35-.1-.25-.1-.35-.25-.55-1.4-3.15-3.6-5.55-6.75-7.1z" fill="#ff6"/><path d="m333.6 298.15c24.15-24.05 40.5-49.1 48.75-74.95 8.4-25.8 6.25-44.9-6.15-57.35-12.45-12.4-31.65-14.4-57.5-6.25-25.9 8.25-50.9 24.5-75.1 48.85q-36.25 36.15-48.65 74.95c-8.25 25.8-6.25 45 6.25 57.45 12.35 12.5 31.45 14.45 57.25 6.15 25.95-8.3 51-24.6 75.15-48.85z" fill="#fff" fill-opacity=".8"/></g></svg>